<svg width="240" height="240" viewBox="0 0 240 240" fill="none" xmlns="http://www.w3.org/2000/svg">
<path fill-rule="evenodd" clip-rule="evenodd" d="M110.503 0.435412C70.0944 4.18884 37.3474 25.2027 17.4588 57.639C4.5347 78.7151 -1.54046 103.685 0.332997 129.31C4.91708 192 59.77 245.077 129.979 239.612C192.973 234.708 244.948 179.051 239.624 110.596C237.674 85.533 228.804 64.877 214.588 46.2254C208.151 37.7808 206.882 37.643 200.159 30.7295C191.824 22.1537 174.196 12.309 162.946 7.95337C147.861 2.11101 128.654 -1.2513 110.503 0.435412V0.435412Z" fill="#108DE8"/>
<path fill-rule="evenodd" clip-rule="evenodd" d="M50.5045 85.0286C48.9727 89.3731 49.8846 137.679 49.8846 146.639C49.8846 156.333 47.9365 159.359 63.3766 164.546C104.258 178.277 144.739 131.719 185.389 154.755C187.274 155.821 189.568 158.01 190.107 154.475L190.122 92.3332C190.125 85.6486 190.733 83.5552 186.219 80.4685C149.843 55.579 110.457 98.1511 73.5472 93.3754C59.8877 91.6087 54.2311 84.7641 50.5045 85.0286V85.0286Z" fill="white"/>
</svg>