<svg width="241" height="240" viewBox="0 0 241 240" fill="none" xmlns="http://www.w3.org/2000/svg">
<path d="M120.106 -7.62939e-06C186.379 -7.62939e-06 240.106 53.7244 240.106 120.004C240.106 186.276 186.379 240 120.106 240C53.8329 240 0.106209 186.276 0.106209 120.004C0.106209 53.7244 53.8329 -7.62939e-06 120.106 -7.62939e-06Z" fill="#00AED6"/>
<path fill-rule="evenodd" clip-rule="evenodd" d="M190.109 116.304C189.195 101.027 176.188 89.3165 160.909 89.9971H85.1087C82.3458 89.9971 80.1037 87.7599 80.1037 84.9985C80.1037 82.2372 82.3458 80 85.1087 80H161.905C161.46 69.6509 154.394 60.7646 144.407 58.0033C122.016 53.9982 99.0971 53.9982 76.7066 58.0033C63.9789 61.1245 54.467 71.716 52.7081 84.7013C49.2053 108.239 49.2053 132.16 52.7081 155.698C55.388 169.442 66.304 180.08 80.1037 182.403C107.862 185.9 135.952 185.9 163.71 182.403C176.075 179.892 185.428 169.731 186.908 157.2C189.444 143.722 190.516 130.009 190.109 116.304V116.304ZM165.106 133.099V137.503C165.106 140.264 162.872 142.501 160.109 142.501C157.346 142.501 155.104 140.264 155.104 137.503V133.099C153.488 131.691 152.575 129.641 152.605 127.498C152.605 123.36 155.964 120.004 160.109 120.004C164.246 120.004 167.605 123.36 167.605 127.498C167.582 129.633 166.676 131.659 165.106 133.099Z" fill="white"/>
</svg>