<svg width="240" height="222" viewBox="0 0 240 222" fill="none" xmlns="http://www.w3.org/2000/svg">
<path d="M7.99781 216.887C3.43276 214.51 -0.160317 212.428 0.00551745 212.257C0.590544 211.677 22.4254 207.015 37.6729 204.219C70.6694 198.171 109.898 193.329 148.975 190.487C165.066 189.312 223.283 189.275 233.38 190.427L240 191.187L232.537 191.302C219.294 191.51 188.914 193.633 165.112 196.019C120.056 200.538 69.9692 208.867 33.7344 217.868C26.3363 219.706 19.3851 221.208 18.2887 221.208C17.1924 221.208 12.5583 219.264 7.99781 216.887V216.887ZM70.9872 171.54C70.3101 169.67 73.1431 168.832 74.3776 168.302C79.9238 165.92 83.8255 162.046 85.1338 157.62C85.7557 155.501 87.6628 143.524 89.3626 131.008C91.067 118.492 92.5917 108.814 92.7622 108.242C92.8866 107.823 93.2182 106.331 95.0148 106.169C99.5982 106.123 103.002 106.183 107.696 106.183C110.29 105.934 109.783 108.772 109.581 110.592C109.373 112.89 108.756 117.326 108.037 122.734C107.158 129.336 105.845 139.198 105.117 144.652C103.486 156.915 102.583 160.692 99.7595 167.008C96.4059 174.521 91.2743 178.888 81.9691 181.997C80.0897 182.587 74.7047 184.416 74.115 182.79C72.8989 178.888 72.0375 175.502 70.9872 171.54ZM177.817 167.427C171.621 164.925 171.911 155.261 178.416 151.295C182.529 148.784 188.315 149.213 191.286 152.184C198.606 159.504 187.841 171.471 177.817 167.427V167.427ZM130.959 161.655C112.731 158.541 112.856 136.807 116.937 124.388C122.05 110.016 134.511 105.838 144.751 105.474C153.393 105.179 165.375 106.787 168.383 108.643C169.216 109.159 168.825 114.139 166.503 132.615C164.891 145.44 163.131 156.468 162.588 157.122C159.704 160.6 140.366 163.368 130.959 161.655V161.655ZM146.861 144.454C148.819 137.176 149.643 130.602 151.044 122.923C150.869 120.275 146.4 120.256 145.263 120.252C139.348 120.252 135.851 123.573 134 130.957C131.457 141.087 134.11 146.734 141.412 146.734C143.724 146.518 146.133 146.647 146.861 144.454V144.454ZM13.6454 155.791C18.6296 143.616 38.6403 100.038 43.4449 91.0094C44.3524 88.7614 46.7432 88.3146 48.3785 88.158C53.0863 87.9415 57.1539 88.0014 61.2905 88.0336C65.5469 88.0705 65.6114 89.563 66.1596 92.7276C66.8275 95.8831 75.1377 145.491 77.0171 157.403C77.2567 159.379 77.7403 159.992 75.1699 159.996C71.5999 160.006 63.018 160.471 60.102 160.254C59.1715 160.13 58.5635 159.522 58.4207 158.836C58.1535 157.555 57.8541 155.362 57.6514 153.078L57.1216 147.144H46.4253H35.7336L33.3981 152.852C32.5643 154.879 31.6568 156.883 30.9797 158.209C30.5052 159.425 29.8004 159.987 28.7409 160.218C26.1244 160.195 16.8469 160.54 13.3598 160.231C11.6323 159.439 13.194 156.896 13.6454 155.791V155.791ZM55.2329 130.625C54.9335 127.424 52.8882 110.891 52.4046 108.45C52.2802 108.187 52.2203 108.275 52.0913 108.427C50.8245 110.325 43.9931 127.101 42.8276 130.999C42.6894 131.537 43.0349 131.731 43.5462 131.69C45.2783 131.57 52.3677 131.436 54.5189 131.353C55.1362 131.307 55.1961 131.091 55.2329 130.625V130.625ZM178.641 138.664C178.918 136.503 179.521 130.639 179.986 125.632C180.452 120.625 181.193 112.803 181.636 108.252C181.976 104.801 182.271 101.448 182.4 99.6835C182.658 98.0988 184.57 97.9146 185.827 97.9007C190.015 97.9468 193.958 97.6981 197.726 98.0482C199.504 98.2278 200.25 98.6194 200.26 99.6789C198.56 108.394 192.456 138.456 191.986 140.317C191.581 141.925 191.415 142.395 188.964 142.538C185.966 142.487 183.46 142.644 180.415 142.63C178.669 142.607 178.199 142.096 178.641 138.664V138.664ZM94.1257 93.999C94.1257 88.6877 97.5437 84.6432 101.823 82.9388C105.518 81.6444 109.663 81.649 111.87 84.1687C115.786 88.72 113.215 95.4455 108.641 98.951C102.781 102.982 94.2178 100.6 94.1257 93.999V93.999ZM199.126 82.8052C197.846 79.963 193.737 70.9895 190.001 62.8636C186.26 54.7424 183.4 47.5792 183.639 46.9482C183.884 46.3217 188.048 41.144 192.903 35.4457L200.799 26.1728C201.315 25.5509 201.909 24.7862 202.623 24.7724C207.381 24.8001 212.315 25.0811 216.857 25.0396C220.238 25.0074 221.943 24.7908 219.432 27.3382C217.824 29.3283 214.66 32.9674 211.039 36.9612C205.801 42.7378 201.522 47.6161 201.522 47.805C201.522 47.9938 205.447 56.6172 210.242 66.968C214.01 75.0985 217.124 82.3722 218.174 85.4125C218.621 86.4444 218.23 87.3288 217.272 87.5684C216 87.8632 213.715 87.9783 209.786 87.9783H203.899C202.462 88.1303 201.407 87.877 200.854 86.6471L199.126 82.8052V82.8052ZM22.9782 76.7523C17.6807 74.1127 15.1748 70.773 14.7187 65.7381C14.4469 62.7208 19.3851 22.1559 21.5686 9.2577C22.1029 6.22662 22.3333 6.05618 25.24 6.05618H30.952C33.9555 6.05618 36.6871 6.00551 38.4054 6.10224C40.7547 6.13909 40.3217 7.61778 40.142 9.38668C39.7413 13.3437 38.4837 21.9118 36.9037 32.9444C34.1029 52.522 33.3889 59.4272 34.0614 60.4913C34.8445 61.7351 36.8346 61.9423 50.0322 62.1404L61.8341 62.3155C64.6487 62.1588 65.2291 62.8498 64.9527 65.3742C64.2617 69.5523 63.884 72.8828 63.2022 76.6233C62.7323 78.9634 61.2214 78.3507 58.8721 78.4935L45.0756 78.687C27.3774 78.9081 27.2853 78.8989 22.9782 76.7523V76.7523ZM159.091 78.2586C158.912 77.9131 159.405 73.1684 160.188 67.7051C160.971 62.2418 162.601 50.5136 163.818 41.6369C167.263 16.4439 168.396 8.85233 168.876 5.94562C169.382 2.55984 169.387 2.7441 172.708 2.7441H177.973C180.028 2.7441 181.631 2.72106 182.87 2.75792C187.601 2.91454 186.998 2.50456 185.804 9.82891C185.353 12.5974 183.851 24.777 182.469 35.0173C178.982 60.8045 176.693 76.6187 176.274 77.844C175.882 78.991 159.676 79.378 159.091 78.2586ZM69.117 76.2916C71.3143 57.8656 73.4148 43.9309 75.8517 26.7809C76.0359 24.7264 78.0536 24.4914 80.4121 24.4868C83.0931 24.4868 85.8202 24.45 88.3722 24.5329C93.3196 24.5513 94.6186 25.2146 94.1073 28.5221C91.9146 44.6219 89.206 58.9896 86.3637 75.3611C85.8294 78.1296 85.1845 78.0467 82.5357 78.0467C79.4494 78.0605 73.9768 78.1619 71.1853 78.0835C69.5454 77.7979 69.1769 77.6091 69.117 76.2916V76.2916ZM104.034 35.0357C105.389 27.9095 106.328 26.7993 108.3 25.5095C110.732 23.9156 128.702 22.2527 134.907 23.0496C135.773 23.174 136.598 23.3306 137.381 23.5148C155.558 27.8311 152.73 48.413 151.55 57.8794C150.302 66.9266 149.081 75.163 148.833 76.1857C148.4 77.9684 148.013 78.0467 139.781 78.0467C137.017 78.0467 135.57 77.9546 134 77.8072C131.457 77.6413 131.222 77.0701 131.475 75.2183C132.401 67.6636 133.65 61.1454 134.58 54.0882C135.833 44.456 135.501 34.9436 123.547 36.9889C121.498 37.5094 120.94 37.6753 120.659 39.7159C119.167 49.233 117.854 59.0633 116.49 68.3684C116.191 70.5888 115.772 72.9104 115.343 74.9695C115.233 75.4901 115.173 75.9599 115.076 76.3054C114.956 76.72 114.671 77.1438 114.399 76.72C112.483 73.2237 103.445 73.8087 99.6719 76.3745C97.7833 77.692 97.3917 78.3968 98.1656 74.3891C98.2992 73.5369 98.4328 72.6893 98.5618 71.8417C100.432 59.5608 101.694 47.4825 104.034 35.0357ZM78.2333 13.9471C76.211 7.0604 82.2225 0.256582 88.9526 0.0216502C98.0735 -0.591016 100.593 11.9571 91.2605 17.6462C85.857 20.1198 80.1772 19.5947 78.2333 13.9471Z" fill="#E9232A"/>
</svg>